<svg version="1.1" id="Layer_1" xmlns="http://www.w3.org/2000/svg" xmlns:xlink="http://www.w3.org/1999/xlink" x="0px" y="0px"
	 width="100%" viewBox="0 0 896 272" enable-background="new 0 0 896 272" xml:space="preserve">
<path fill="#000000" opacity="1.000000" stroke="none" 
	d="
M1.000000,4.468657 
	C3.940817,6.393302 3.167878,9.778299 3.174674,12.835063 
	C3.277567,59.118771 3.326657,105.402626 3.353432,151.686462 
	C3.371442,182.819946 3.350345,213.953476 3.289112,245.086884 
	C3.284739,247.310394 4.020427,249.848755 1.324219,251.760925 
	C1.000000,169.645767 1.000000,87.291542 1.000000,4.468657 
z"/>
<path fill="#000000" opacity="1.000000" stroke="none" 
	d="
M382.568115,74.884003 
	C383.875153,72.846474 385.780640,72.728798 387.560913,72.357147 
	C390.389587,71.766624 393.185913,72.242851 396.010071,72.522629 
	C405.066528,73.419807 405.038788,73.373413 405.128937,82.322914 
	C405.190979,88.485939 405.110046,94.666382 405.566956,100.803749 
	C405.863434,104.786049 403.989532,106.221062 400.668243,105.800873 
	C393.513031,104.895599 386.377625,106.089989 379.218475,105.616905 
	C375.754974,105.388039 374.496552,104.543022 374.615540,101.025703 
	C374.846466,94.199852 374.752563,87.362106 374.738617,80.529404 
	C374.734344,78.442261 374.551483,76.355492 374.449677,74.253380 
	C371.937866,74.465080 372.390320,75.946198 372.362579,76.932213 
	C372.259583,80.596062 372.116394,84.274620 372.331787,87.927399 
	C372.576996,92.086105 370.860138,93.403984 366.763885,93.372688 
	C347.099426,93.222458 327.433075,93.322838 307.767395,93.327255 
	C300.565826,93.328865 300.389221,93.320068 300.387939,100.423378 
	C300.387268,104.071381 299.292969,105.230087 295.497589,105.178391 
	C291.251709,105.120560 292.045166,102.504311 292.012146,100.131187 
	C291.968109,96.966263 292.258087,93.788025 292.067169,90.635933 
	C291.806396,86.329758 293.504730,84.798248 297.885864,84.838234 
	C317.214111,85.014648 336.545013,84.929169 355.874847,84.893562 
	C363.744568,84.879066 364.751556,85.151436 363.899658,77.120674 
	C363.358521,72.019676 368.367310,73.209648 370.271698,71.148399 
	C369.918152,67.045052 363.634216,71.607208 364.134644,66.605202 
	C364.427582,63.677116 364.707428,60.760777 362.980804,57.696762 
	C360.500763,59.494831 361.255737,61.868450 361.420288,63.748142 
	C361.805450,68.147293 360.140381,69.458908 355.739227,69.431824 
	C329.074829,69.267715 302.408600,69.418083 275.743225,69.363472 
	C270.610016,69.352959 265.462372,70.335129 259.868591,69.175331 
	C259.868591,58.534336 259.868591,47.822453 259.868591,36.650742 
	C263.052155,36.650742 266.469025,36.649853 269.885895,36.650883 
	C298.218109,36.659435 326.551086,36.773499 354.881866,36.576267 
	C359.749298,36.542377 362.191956,37.635681 361.371582,42.892792 
	C360.658478,47.462681 362.693634,49.397736 367.285797,48.890331 
	C371.272034,48.449871 372.553070,50.533527 372.363678,54.291782 
	C372.154205,58.447865 372.328796,62.622456 372.298218,66.788704 
	C372.278809,69.435020 373.177368,71.363441 376.046661,71.808884 
	C378.836914,72.242035 381.336609,72.944687 380.009552,78.339638 
	C381.626190,76.178833 382.008789,75.667427 382.568115,74.884003 
z"/>
<path fill="#000000" opacity="1.000000" stroke="none" 
	d="
M69.436958,102.200188 
	C69.109848,107.001793 65.701439,104.918274 63.685123,105.069458 
	C61.343815,105.245003 61.558723,103.038895 61.564079,101.373337 
	C61.576405,97.541031 61.788120,93.697807 61.566944,89.879402 
	C61.321991,85.650558 63.613159,84.872551 67.133392,84.885086 
	C84.294113,84.946198 101.455208,84.910545 118.616165,84.901024 
	C122.281578,84.898987 125.948669,84.786362 129.611847,84.867203 
	C132.586121,84.932846 133.754227,83.656311 133.732010,80.670288 
	C133.702499,76.703117 132.056656,71.571953 139.374466,72.326912 
	C139.018829,71.594475 132.641876,58.460968 132.603104,58.381123 
	C131.019470,59.834881 131.217102,61.799770 131.399246,63.497883 
	C131.896332,68.132057 130.009720,69.475334 125.442184,69.441803 
	C100.280815,69.257095 75.117340,69.361893 49.954582,69.366272 
	C44.455441,69.367233 38.952866,69.245628 33.458412,69.405457 
	C30.027908,69.505234 28.676043,68.170395 28.741978,64.720840 
	C28.888447,57.058094 28.901375,49.388634 28.750359,41.726215 
	C28.679983,38.155403 29.891132,36.636692 33.639675,36.646233 
	C64.634621,36.725155 95.630066,36.724419 126.624825,36.606743 
	C130.476761,36.592121 131.796692,38.200264 131.317261,41.696392 
	C130.616791,46.804302 132.020187,49.748844 137.909409,48.960098 
	C140.466232,48.617661 141.339890,50.331615 141.363388,52.714050 
	C141.484818,65.029633 141.648300,77.344833 141.816559,89.659904 
	C141.867554,93.391739 139.361755,93.302094 136.701401,93.297058 
	C117.538010,93.260765 98.374527,93.277527 79.211075,93.277130 
	C78.711159,93.277115 78.211235,93.271790 77.711319,93.271408 
	C69.309196,93.265038 69.309196,93.265121 69.436958,102.200188 
M84.495659,88.983414 
	C81.670250,88.981255 78.841438,88.887787 76.020012,88.992790 
	C64.026512,89.439140 65.410294,86.988068 65.349159,100.076843 
	C65.348412,100.238434 65.527626,100.400856 65.783951,100.837090 
	C65.783951,99.534851 65.779640,98.545433 65.784630,97.556053 
	C65.824760,89.603409 65.825279,89.615341 73.785965,89.629730 
	C82.005478,89.644585 90.225052,89.633034 98.444595,89.633034 
	C98.440865,89.422432 98.437126,89.211838 98.433395,89.001236 
	C94.119370,89.001236 89.805344,89.001236 84.495659,88.983414 
M126.193893,89.636780 
	C128.002304,89.636780 129.810699,89.636780 131.619110,89.636780 
	C131.618393,89.495255 131.617691,89.353737 131.616989,89.212212 
	C122.565720,89.212212 113.514450,89.212212 104.463181,89.212212 
	C104.463089,89.353874 104.462997,89.495544 104.462906,89.637207 
	C111.401619,89.637207 118.340324,89.637207 126.193893,89.636780 
z"/>
<path fill="#000000" opacity="1.000000" stroke="none" 
	d="
M690.985962,69.364212 
	C667.663879,69.780579 644.779114,68.153915 622.016541,71.187134 
	C629.102234,73.219482 636.335083,72.908501 643.499939,72.625999 
	C648.115173,72.444023 649.621887,73.980797 649.468445,78.570946 
	C649.212830,86.213936 649.495544,93.877403 649.652222,101.530182 
	C649.698730,103.799179 649.452332,105.608284 646.603821,105.510025 
	C637.682617,105.202301 628.737610,106.275940 619.387512,105.262596 
	C619.959961,82.532028 618.229675,60.009743 620.069824,37.501198 
	C621.308594,36.249584 622.885559,36.677464 624.333801,36.675789 
	C650.472717,36.645538 676.612061,36.704189 702.750183,36.557907 
	C706.184143,36.538689 707.767090,37.384712 707.354675,40.971142 
	C706.775574,46.006767 707.316406,50.079441 714.156799,49.009239 
	C716.029480,48.716244 717.319763,49.888397 717.324158,51.980972 
	C717.335754,57.591434 717.328125,63.201935 717.328125,68.700043 
	C709.704773,69.905304 709.687561,69.875603 709.507935,63.172440 
	C709.464600,61.554688 709.239624,59.941799 709.008057,57.297340 
	C706.172791,61.455368 708.136841,65.251343 706.935120,69.371956 
	C701.955688,69.371956 696.719421,69.371956 690.985962,69.364212 
z"/>
<path fill="#000000" opacity="1.000000" stroke="none" 
	d="
M489.078125,55.932579 
	C489.280426,50.652851 489.648346,45.832310 489.635498,41.012775 
	C489.626801,37.742405 490.970001,36.626125 494.125336,36.666130 
	C502.288757,36.769630 510.454742,36.657078 518.619690,36.656940 
	C545.780701,36.656490 572.942627,36.778030 600.101990,36.571972 
	C604.973022,36.535011 607.402100,37.513306 606.441406,42.865837 
	C605.630066,47.386173 607.621643,49.378822 612.277710,48.878807 
	C615.926575,48.486958 617.351440,50.472218 617.286377,53.993309 
	C617.188843,59.268017 617.260986,64.545860 617.260986,69.571114 
	C606.547241,72.502060 609.135498,64.364113 608.115234,58.713528 
	C605.510986,62.560993 607.035645,66.052307 606.112610,69.396729 
	C589.403564,69.396729 572.787476,69.400581 556.171387,69.395744 
	C536.008972,69.389877 515.844910,69.236099 495.685333,69.470642 
	C490.955353,69.525665 488.852264,68.312820 489.369812,63.372105 
	C489.609802,61.080669 489.197937,58.720959 489.078125,55.932579 
z"/>
<path fill="#000000" opacity="1.000000" stroke="none" 
	d="
M31.294956,141.208069 
	C28.737459,140.468216 28.825859,138.692139 28.819069,137.037949 
	C28.786938,129.210892 28.895563,121.381798 28.748478,113.557297 
	C28.678368,109.827698 30.309971,108.658318 33.869770,108.663368 
	C64.845123,108.707382 95.821014,108.706123 126.795616,108.524307 
	C130.847031,108.500534 131.746704,110.270714 131.325760,113.631744 
	C130.709305,118.553940 131.724365,121.858101 137.792908,120.991402 
	C139.890106,120.691887 141.293716,121.781708 141.312683,124.145630 
	C141.452698,141.600479 141.752701,159.056213 140.983643,176.505020 
	C140.978149,176.629669 140.770950,176.745422 140.657913,176.865326 
	C133.903107,177.719330 133.771881,177.722992 133.586105,171.067886 
	C133.372849,163.427979 133.653580,155.768585 133.252426,148.142242 
	C133.075180,144.772354 136.062500,145.072937 137.926041,143.173111 
	C131.269791,141.414795 134.509674,135.693985 132.822296,131.963837 
	C131.740326,131.955322 131.874207,132.792343 131.778854,133.317169 
	C130.296768,141.475143 130.305115,141.405869 121.685738,141.387268 
	C91.711525,141.322571 61.737190,141.311386 31.294956,141.208069 
z"/>
<path fill="#000000" opacity="1.000000" stroke="none" 
	d="
M837.196350,133.585114 
	C837.628906,142.169327 837.635742,141.759308 829.525818,141.624527 
	C807.714172,141.262024 785.896912,141.028183 764.080750,141.655746 
	C755.772034,141.894745 747.452698,141.744904 739.140930,141.907852 
	C735.606750,141.977112 734.580078,140.367737 734.641846,137.022690 
	C734.804016,128.243637 734.696594,119.459610 733.997253,110.620293 
	C731.773682,114.089142 732.339844,117.967987 732.292664,121.711670 
	C732.198120,129.211670 732.251770,129.212341 724.895691,129.262955 
	C717.446106,129.314224 717.455811,129.314301 717.386230,136.582520 
	C717.373718,137.890030 717.244263,139.196411 717.172729,140.435410 
	C710.018188,142.203354 709.371704,141.718430 709.593506,134.981934 
	C709.615417,134.316147 709.612732,133.649490 709.617493,132.983215 
	C709.694458,122.181526 709.680725,122.059608 720.501465,120.852226 
	C723.872681,120.476074 723.964417,118.510551 724.039856,116.032890 
	C724.243774,109.334442 726.485352,106.897202 732.880188,107.702293 
	C749.163330,109.752304 765.480347,108.394157 781.776123,108.603897 
	C798.762756,108.822525 815.755676,108.621353 832.744995,108.485336 
	C836.146851,108.458107 837.570374,109.605560 837.433655,113.157158 
	C837.177612,119.809738 837.253113,126.475060 837.196350,133.585114 
M726.029541,125.537094 
	C729.039307,123.317223 729.383972,121.350822 728.194153,112.061577 
	C728.194153,114.701782 728.166077,116.692039 728.200684,118.681198 
	C728.253723,121.734154 728.464844,124.855507 724.210205,125.300247 
	C724.296875,125.385445 724.376465,125.533890 724.471436,125.544373 
	C724.799561,125.580650 725.132935,125.568878 726.029541,125.537094 
z"/>
<path fill="#000000" opacity="1.000000" stroke="none" 
	d="
M360.426025,181.066498 
	C360.959442,182.119598 361.267670,182.912186 361.314423,183.719894 
	C361.765259,191.509354 361.741821,191.571014 369.132263,192.889511 
	C371.363770,193.287628 372.298492,194.416901 372.295471,196.576172 
	C372.289917,200.572525 372.293304,204.569153 372.335968,208.565201 
	C372.365387,211.321274 372.083252,213.229614 368.318756,213.248901 
	C364.417664,213.268875 363.909210,211.474167 363.960541,208.362488 
	C363.994080,206.327347 364.507782,204.082306 362.799042,201.987717 
	C360.504364,203.813446 361.280396,206.156006 361.429474,208.056793 
	C361.761475,212.289764 359.987122,213.421478 355.942474,213.399048 
	C329.799011,213.254074 303.654327,213.321198 277.510071,213.320374 
	C272.847595,213.320221 268.183929,213.265793 263.523102,213.355011 
	C260.800629,213.407104 259.621857,212.282059 259.619263,209.519684 
	C259.611298,201.029373 259.499939,192.538879 259.382080,184.049103 
	C259.332306,180.461929 261.873291,180.691666 264.215973,180.687241 
	C279.535889,180.658325 294.855957,180.630768 310.175903,180.653381 
	C326.810486,180.677917 343.444977,180.757431 360.426025,181.066498 
z"/>
<path fill="#000000" opacity="1.000000" stroke="none" 
	d="
M69.000031,180.673645 
	C88.313301,180.682251 107.127472,180.794250 125.939102,180.624664 
	C130.250961,180.585815 131.826645,181.817032 131.593063,186.316040 
	C131.196457,193.954742 131.311081,201.627518 131.437927,209.282196 
	C131.488083,212.309586 130.429565,213.411789 127.408424,213.404800 
	C96.108734,213.332275 64.808800,213.316681 33.509102,213.374039 
	C30.175003,213.380157 28.656912,212.317627 28.727373,208.780731 
	C28.883194,200.958893 28.865643,193.130112 28.729364,185.307480 
	C28.668314,181.802979 30.199427,180.642838 33.537594,180.668320 
	C45.191071,180.757324 56.845772,180.685501 69.000031,180.673645 
z"/>
<path fill="#000000" opacity="1.000000" stroke="none" 
	d="
M487.312195,208.772308 
	C487.837891,213.749725 484.604309,213.456543 481.804657,213.380173 
	C478.200287,213.281860 479.443420,210.573715 479.464783,208.571365 
	C479.485046,206.674377 480.052032,204.651962 478.162720,202.755814 
	C476.719421,204.613144 477.073914,206.512894 477.308472,208.172150 
	C477.875244,212.181274 476.282196,213.449829 472.345215,213.396347 
	C459.533569,213.222305 446.718140,213.320190 433.904144,213.329498 
	C420.923920,213.338913 407.940765,213.216843 394.965027,213.468140 
	C390.328918,213.557922 388.014435,212.277588 388.739563,207.315369 
	C389.384460,202.902100 387.703400,200.677032 382.942322,201.265411 
	C380.073181,201.619949 378.606140,200.227524 378.662079,197.226578 
	C378.742706,192.901260 378.724823,188.573730 378.714661,184.247223 
	C378.708649,181.693222 379.929565,180.815536 382.457672,180.848862 
	C384.907776,180.881165 386.794403,181.227188 387.032349,184.109772 
	C387.234344,186.556885 386.394897,189.073715 387.631744,191.890701 
	C389.417877,190.349228 388.998535,188.431458 388.695435,186.930634 
	C387.654144,181.775040 390.038666,180.605896 394.695404,180.632309 
	C417.493256,180.761612 440.292358,180.666245 463.091034,180.651321 
	C466.086517,180.649353 469.097351,180.845474 472.073700,180.607468 
	C476.101746,180.285370 477.594177,182.104218 477.155487,185.882675 
	C476.601959,190.650024 477.731445,193.714096 483.491394,192.929779 
	C486.145691,192.568359 487.408020,194.065491 487.334747,196.821548 
	C487.233032,200.646317 487.314178,204.475952 487.312195,208.772308 
z"/>
<path fill="#000000" opacity="1.000000" stroke="none" 
	d="
M388.750549,51.995583 
	C388.772064,36.673706 388.772064,36.671196 403.717682,36.668167 
	C426.012939,36.663651 448.309692,36.800564 470.602234,36.554276 
	C475.541656,36.499702 477.871033,37.742538 477.129608,42.927387 
	C476.489258,47.405430 478.349030,49.450066 483.001068,48.931355 
	C486.418091,48.550358 487.832245,50.359730 487.677979,53.708500 
	C487.494415,57.694569 487.280487,61.691269 487.385468,65.675308 
	C487.495880,69.866531 484.447815,69.548210 481.930603,69.636436 
	C478.773285,69.747093 479.460999,67.300903 479.486115,65.330780 
	C479.512604,63.249744 480.197723,61.026890 478.287292,58.909908 
	C476.437683,60.789627 477.116852,63.022659 477.252686,64.949524 
	C477.501038,68.471809 476.152008,69.527184 472.644196,69.498047 
	C452.679840,69.332207 432.713501,69.343864 412.748108,69.394936 
	C406.440735,69.411064 400.128113,69.621902 393.829498,69.959831 
	C390.100189,70.159920 388.219299,69.201729 388.613617,64.963524 
	C388.997437,60.838051 388.731628,56.652142 388.750549,51.995583 
z"/>
<path fill="#000000" opacity="1.000000" stroke="none" 
	d="
M180.999634,69.355347 
	C170.026917,69.585678 159.534973,68.826149 149.079987,69.933212 
	C145.180954,70.346069 144.001144,69.096230 144.291245,64.843964 
	C144.833130,56.900646 144.610016,48.884258 144.301895,40.913860 
	C144.174225,37.611408 144.937408,36.530994 148.346970,36.549145 
	C174.137512,36.686420 199.929672,36.754620 225.719528,36.578007 
	C230.561554,36.544849 233.034897,37.627800 232.185455,42.942142 
	C231.477982,47.368240 233.315567,49.484985 238.011230,48.978771 
	C241.078415,48.648109 242.590317,50.124966 242.439636,53.398079 
	C242.263809,57.217461 242.276428,61.054264 242.410202,64.876411 
	C242.518951,67.983925 241.503616,69.305809 238.130478,69.296188 
	C234.637451,69.286217 234.410156,67.566833 234.560669,64.873154 
	C234.683884,62.667812 235.229965,60.324921 233.810303,57.828712 
	C231.499435,59.746952 232.188721,62.057346 232.338760,63.967613 
	C232.663391,68.100449 231.079926,69.524178 226.924576,69.470688 
	C211.784943,69.275780 196.641586,69.370888 180.999634,69.355347 
z"/>
<path fill="#000000" opacity="1.000000" stroke="none" 
	d="
M619.667419,110.329384 
	C621.178040,108.152817 623.165161,108.713860 624.906067,108.711418 
	C650.374634,108.675735 675.844116,108.809654 701.311157,108.613617 
	C706.233459,108.575729 707.638245,110.289703 707.427429,114.986168 
	C707.106628,122.132614 707.062195,129.325333 707.511841,136.459869 
	C707.783508,140.771866 706.062744,141.465332 702.375732,141.445938 
	C680.391357,141.330322 658.406006,141.357788 636.421143,141.399475 
	C632.263794,141.407349 628.100952,141.604523 623.952026,141.883362 
	C620.826477,142.093399 619.462463,141.131836 619.531616,137.699066 
	C619.712585,128.713989 619.548950,119.721977 619.667419,110.329384 
z"/>
<path fill="#000000" opacity="1.000000" stroke="none" 
	d="
M221.965820,141.326141 
	C200.641159,141.346405 179.810211,141.339935 158.979568,141.417267 
	C155.490097,141.430206 151.998703,141.763321 148.514191,142.027527 
	C145.339661,142.268204 144.193634,141.261337 144.365509,137.738770 
	C144.746628,129.926910 144.942139,122.053474 144.371902,114.266762 
	C144.009506,109.317810 145.948929,107.785843 150.186813,108.136284 
	C164.835236,109.347595 179.498718,108.440552 194.153259,108.604630 
	C205.150589,108.727753 216.151169,108.781532 227.147614,108.646843 
	C231.003403,108.599609 232.500351,109.892220 232.346756,113.874840 
	C232.077194,120.863960 232.256607,127.870300 232.243423,134.869415 
	C232.231064,141.421494 232.228470,141.421448 225.459198,141.355835 
	C224.459335,141.346146 223.459488,141.336960 221.965820,141.326141 
z"/>
<path fill="#000000" opacity="1.000000" stroke="none" 
	d="
M259.971893,108.016739 
	C263.887024,109.189781 267.915680,108.675934 271.884399,108.684731 
	C290.520905,108.726044 309.159363,108.746544 327.793213,108.490044 
	C331.979065,108.432426 333.695099,109.714035 333.172729,113.854698 
	C332.575592,118.588524 333.670410,121.739075 339.466553,120.955261 
	C341.371124,120.697708 343.235870,121.325470 343.253021,123.835022 
	C343.291443,129.450027 343.265045,135.065475 343.265045,140.491394 
	C340.524536,141.495651 338.408813,141.510025 336.128693,141.196609 
	C334.117523,137.812515 337.104156,133.653549 334.506927,130.030533 
	C332.476044,131.962570 333.062134,134.238937 333.242981,136.194016 
	C333.612091,140.185074 331.986481,141.435074 328.097443,141.397232 
	C313.446136,141.254608 298.791931,141.300247 284.139801,141.408585 
	C277.486877,141.457779 270.833801,141.763046 264.185669,142.061310 
	C260.881714,142.209534 259.448761,141.152618 259.518646,137.509262 
	C259.702789,127.911850 259.020935,118.305321 259.841583,108.354942 
	C259.993164,108.004311 259.971893,108.016739 259.971893,108.016739 
z"/>
<path fill="#000000" opacity="1.000000" stroke="none" 
	d="
M828.351562,61.942352 
	C827.793884,64.604118 829.697510,68.628258 826.563538,68.659081 
	C823.064331,68.693497 825.290649,64.710953 824.792480,62.553471 
	C824.472595,61.168354 825.036743,59.589252 823.802979,58.040379 
	C821.699402,59.317818 822.416687,61.282841 822.384033,62.880989 
	C822.251953,69.341766 822.292969,69.355133 815.657410,69.359970 
	C796.829407,69.373703 778.001343,69.348480 759.173401,69.394112 
	C748.737488,69.419403 748.737793,69.469467 748.753845,58.891644 
	C748.762634,53.059917 748.879089,47.225563 748.737854,41.397465 
	C748.654541,37.960812 750.041321,36.662777 753.462952,36.674820 
	C774.789978,36.749897 796.117493,36.750938 817.444397,36.655693 
	C821.056885,36.639557 822.508179,37.781624 822.262024,41.606163 
	C821.825684,48.385231 822.008301,48.504288 828.654602,48.908787 
	C831.738831,49.096489 833.260803,50.297634 833.187744,53.473324 
	C833.088135,57.802811 833.140503,62.135658 833.059265,66.465782 
	C833.036804,67.662674 832.706543,68.890152 831.186279,68.943199 
	C829.606018,68.998337 829.281433,67.656502 829.218323,66.537865 
	C829.040100,63.381226 828.988159,60.213642 829.004211,57.050972 
	C829.019287,54.090714 827.672729,52.754433 823.561035,53.156502 
	C830.429138,53.930088 827.695984,58.433891 828.351562,61.942352 
z"/>
<path fill="#000000" opacity="1.000000" stroke="none" 
	d="
M242.769409,130.906860 
	C242.526352,133.119125 242.322617,134.951965 242.411743,136.770462 
	C242.559784,139.791229 241.698456,141.246063 238.230804,141.280151 
	C234.227493,141.319458 234.539139,139.059952 234.627701,136.409286 
	C234.749893,132.751450 234.817383,129.083099 234.679794,125.427841 
	C234.557892,122.189186 236.044037,120.844620 239.129150,120.906326 
	C240.127213,120.926292 241.126251,120.915100 242.124588,120.900749 
	C248.710312,120.806084 248.220428,120.754089 248.891373,114.238945 
	C249.582443,107.528320 248.689926,101.061005 248.418228,93.144836 
	C244.962448,97.674889 247.429047,101.743774 245.897400,105.266029 
	C236.867447,105.266029 227.778763,105.393005 218.697128,105.195885 
	C215.594452,105.128555 216.045654,102.358894 216.024475,100.230347 
	C215.955948,93.340851 215.962128,93.344383 209.175659,93.331581 
	C203.683517,93.321228 198.191406,93.289215 192.699280,93.287811 
	C185.442810,93.285957 185.476425,93.296417 185.123047,100.509438 
	C185.015610,102.702057 185.636597,105.055138 181.719299,105.153008 
	C177.505798,105.258278 176.009537,104.240913 176.638290,99.911896 
	C177.088272,96.813728 176.874634,93.594543 176.726196,90.440224 
	C176.534882,86.374794 178.293533,84.783669 182.358093,84.851639 
	C191.840561,85.010216 201.333679,84.697388 210.810074,84.984673 
	C215.555328,85.128517 217.414429,83.292473 216.456345,78.841202 
	C215.344604,73.676018 217.674820,72.433304 222.331757,72.608177 
	C228.812759,72.851540 235.313507,72.765244 241.799728,72.592300 
	C245.106384,72.504135 246.949005,73.401886 246.450363,77.069275 
	C245.745865,82.250557 246.551514,85.948822 253.287323,85.000931 
	C256.251129,84.583862 257.165863,86.926712 257.164642,89.602684 
	C257.159302,101.393776 257.153717,113.185005 257.207672,124.975906 
	C257.222473,128.216461 255.609787,129.247620 252.549881,129.350815 
	C249.336472,129.459152 245.902435,128.241577 242.769409,130.906860 
M181.520477,92.416405 
	C181.482254,90.354317 182.991776,89.711815 184.708694,89.259521 
	C179.807358,89.803467 179.561981,90.543427 180.790894,101.055420 
	C181.001785,98.145958 181.180664,95.678024 181.520477,92.416405 
z"/>
<path fill="#000000" opacity="1.000000" stroke="none" 
	d="
M41.194252,153.636383 
	C41.387726,156.603333 43.198742,156.839981 45.135685,156.841919 
	C62.446442,156.859146 79.757301,156.840073 97.067894,156.899719 
	C100.343369,156.911011 100.750175,155.003754 100.847519,152.359879 
	C101.129280,144.706619 101.197243,144.697113 108.908440,144.675980 
	C115.068138,144.659088 121.230965,144.791199 127.386375,144.628860 
	C130.410248,144.549133 131.505692,145.604309 131.447220,148.662048 
	C131.288101,156.982971 131.265549,165.310745 131.424835,173.631287 
	C131.484268,176.735977 130.175873,178.073441 127.330444,177.760910 
	C120.183937,176.975983 113.024017,177.357040 105.877213,177.420731 
	C101.971413,177.455536 100.606461,176.105194 100.719337,172.168549 
	C100.916008,165.309601 100.711296,165.302490 93.957428,165.301926 
	C75.644585,165.300430 57.330269,165.173111 39.019913,165.385986 
	C34.275383,165.441132 32.261452,163.979782 32.700520,159.122101 
	C32.999115,155.818558 32.717567,152.466248 32.812241,149.139053 
	C32.856724,147.575760 32.549301,145.674896 35.298595,145.182144 
	C37.631504,149.738693 35.437321,154.847183 36.798603,159.834900 
	C37.801567,154.749878 35.812523,149.639877 38.456116,144.727463 
	C42.758053,146.880173 40.445663,150.501007 41.194252,153.636383 
z"/>
<path fill="#000000" opacity="1.000000" stroke="none" 
	d="
M710.970459,72.679268 
	C712.464417,72.650139 713.464233,72.608406 714.463806,72.613548 
	C721.204102,72.648201 721.432739,72.656677 721.275146,79.499374 
	C721.177795,83.730453 722.804871,85.300453 726.846130,84.886368 
	C730.878723,84.473167 732.659058,86.176704 732.358459,90.383308 
	C732.074097,94.364174 732.230530,98.379211 732.258423,102.378769 
	C732.277954,105.175529 730.860596,106.406700 728.200623,106.078125 
	C725.894958,105.793297 723.931641,105.007751 724.400208,101.984421 
	C724.834106,99.184753 724.519287,96.497292 722.959656,93.442871 
	C720.443054,96.323418 721.512878,99.246521 721.407532,101.849304 
	C721.296753,104.587318 720.476318,105.649704 717.553345,105.544731 
	C710.561462,105.293671 703.554321,105.251686 696.559143,105.399223 
	C692.978394,105.474747 691.514587,104.368004 691.550232,100.562622 
	C691.617432,93.379265 691.414673,93.369720 684.161438,93.346382 
	C677.994873,93.326546 671.821350,93.501595 665.664062,93.257935 
	C661.466248,93.091812 660.016357,94.778610 660.214355,98.851143 
	C660.316833,100.959137 661.349670,103.765884 658.430115,105.013008 
	C654.616943,106.641853 651.968933,104.733406 652.029480,100.467247 
	C652.074280,97.306664 652.792236,94.067917 652.307495,91.006973 
	C651.466431,85.696655 653.866882,84.729057 658.439941,84.839500 
	C667.599670,85.060692 676.771912,84.745827 685.932800,84.942978 
	C690.156799,85.033875 692.402100,83.713173 691.687256,79.241158 
	C690.878906,74.183861 692.873474,72.246872 697.983459,72.667458 
	C702.120239,73.007965 706.309998,72.705582 710.970459,72.679268 
z"/>
<path fill="#000000" opacity="1.000000" stroke="none" 
	d="
M690.826843,155.862366 
	C691.306152,154.923706 691.594971,154.300552 691.654419,153.656219 
	C692.467529,144.844299 692.459961,144.854355 701.462341,144.697418 
	C706.784180,144.604660 712.112671,144.603271 717.423889,144.305511 
	C720.477173,144.134323 721.813721,145.117752 721.425537,148.251694 
	C721.262939,149.564529 721.463928,150.919586 721.341003,152.240692 
	C721.014099,155.753937 722.705200,157.216003 726.044922,156.864288 
	C731.260132,156.315125 732.867371,158.820602 732.346741,163.674591 
	C732.046631,166.472519 732.184570,169.330902 732.293030,172.155624 
	C732.415955,175.356476 732.164612,177.344910 727.798401,177.195908 
	C723.513550,177.049698 724.328857,174.890671 724.454712,172.337799 
	C724.564758,170.105637 724.494141,167.815704 722.788757,165.552261 
	C720.478271,168.193527 721.543945,170.948914 721.362610,173.428574 
	C721.199280,175.663086 720.838196,177.364319 718.073730,177.353928 
	C710.917725,177.327042 703.761353,177.363510 696.605164,177.373810 
	C695.137390,177.375916 693.669556,177.374100 692.269226,177.374100 
	C691.928894,176.555008 691.596130,176.115967 691.581848,175.666809 
	C691.255432,165.395386 691.262024,165.384125 681.202271,165.337021 
	C676.043274,165.312866 670.875793,165.517258 665.727600,165.281448 
	C661.561707,165.090622 659.973145,166.765045 660.270874,170.849655 
	C660.410706,172.768646 660.754761,174.848770 659.530090,176.627213 
	C651.819641,177.512177 651.851135,177.513321 652.116455,170.226318 
	C652.207092,167.738327 652.277710,165.225266 652.036804,162.754944 
	C651.617554,158.455811 653.290161,156.717407 657.691956,156.812607 
	C666.672668,157.006821 675.661133,156.872025 684.646118,156.823105 
	C686.619507,156.812347 688.654175,157.141663 690.826843,155.862366 
z"/>
<path fill="#000000" opacity="1.000000" stroke="none" 
	d="
M847.268921,88.302078 
	C847.297119,92.269836 847.318787,95.768379 847.298035,99.266678 
	C847.260559,105.581581 847.091187,105.705208 840.166626,104.726151 
	C838.315674,101.473373 841.094055,97.280312 838.135071,93.570457 
	C836.566528,96.351723 837.093262,98.843918 837.326233,101.202980 
	C837.662842,104.612640 835.896973,105.743660 832.927917,105.706978 
	C825.769775,105.618538 818.610901,105.319542 811.455505,105.397621 
	C807.655334,105.439079 806.631653,103.785309 806.639771,100.257278 
	C806.655762,93.290771 806.501282,93.293373 799.496887,93.296089 
	C793.832703,93.298286 788.168579,93.282036 782.504395,93.292465 
	C775.504761,93.305344 775.347717,93.314438 775.384644,100.297546 
	C775.403076,103.789619 774.579590,105.581665 770.651428,105.285736 
	C768.218018,105.102417 767.402405,104.138672 767.490234,101.907082 
	C767.575256,99.743523 767.604126,97.577278 767.628357,95.411880 
	C767.762451,83.438362 766.161316,85.178833 778.499084,84.868454 
	C786.155457,84.675865 793.825684,84.757080 801.482483,84.972244 
	C805.280212,85.078972 806.843445,83.888596 806.777588,79.852806 
	C806.661194,72.731567 806.880981,72.720146 813.914490,72.693405 
	C819.911743,72.670601 825.915100,72.827156 831.904297,72.600761 
	C835.800537,72.453484 837.621338,73.939049 837.088135,77.815521 
	C836.361389,83.099068 838.209351,85.695168 843.858582,85.035286 
	C845.653748,84.825592 847.123779,85.680176 847.268921,88.302078 
z"/>
<path fill="#000000" opacity="1.000000" stroke="none" 
	d="
M806.699829,172.979660 
	C806.661926,165.312912 806.661926,165.317459 799.231323,165.324356 
	C793.234192,165.329910 787.224182,165.563309 781.244141,165.242966 
	C776.687866,164.998901 775.015442,166.514236 775.206421,171.183136 
	C775.470520,177.638321 775.166931,177.665054 767.728882,176.744492 
	C767.728882,171.077469 767.531738,165.300110 767.808472,159.545517 
	C767.956177,156.475220 770.792542,156.928925 772.869202,156.915054 
	C782.028992,156.853806 791.194580,156.699966 800.347595,156.954742 
	C804.940002,157.082565 807.397705,155.844757 806.706116,150.825165 
	C806.083008,146.301819 808.111816,144.545288 812.658997,144.645493 
	C819.310242,144.792038 825.980164,144.934082 832.621094,144.068146 
	C835.642273,143.674225 837.366516,144.996643 837.330811,148.289322 
	C837.242432,156.449326 837.114258,164.612167 837.247742,172.769836 
	C837.305786,176.313065 835.823547,177.470612 832.480957,177.412628 
	C825.319885,177.288361 818.154541,177.313110 810.992249,177.392426 
	C808.182434,177.423538 806.444153,176.596573 806.699829,172.979660 
z"/>
<path fill="#000000" opacity="1.000000" stroke="none" 
	d="
M553.019531,105.414185 
	C547.448425,106.206696 542.303467,105.259438 537.166443,105.436844 
	C533.575867,105.560844 532.672791,103.855957 532.689453,100.564163 
	C532.726257,93.321800 532.594727,93.324089 525.345337,93.331429 
	C516.532288,93.340355 507.717407,93.239365 498.907135,93.397888 
	C495.087585,93.466614 493.442963,92.092506 493.614655,88.157402 
	C493.828918,83.248009 493.666107,78.322159 493.666107,73.527901 
	C502.041382,72.635269 502.300415,72.730026 501.608063,80.099876 
	C501.268982,83.708977 502.510498,84.896729 505.962799,84.844528 
	C513.276611,84.733940 520.598755,84.678284 527.907410,84.913292 
	C531.943054,85.043060 533.104309,83.324989 533.016174,79.567726 
	C532.856873,72.774216 532.996765,72.798027 539.918335,72.805321 
	C545.738098,72.811462 551.574524,73.003471 557.372681,72.631653 
	C562.345215,72.312782 563.644531,74.372246 563.439270,79.020004 
	C563.124695,86.145676 563.106201,93.314323 563.527710,100.431236 
	C563.775879,104.621101 562.137329,105.806519 558.431946,105.551735 
	C556.775269,105.437813 555.109497,105.455528 553.019531,105.414185 
M558.752869,85.361870 
	C558.504883,83.349609 559.095825,80.338837 555.970520,80.671486 
	C553.657898,80.917641 551.216736,82.601059 550.556946,85.134232 
	C549.966736,87.400696 551.834106,88.836342 553.787476,89.430862 
	C556.553528,90.272751 558.166138,88.867638 558.752869,85.361870 
M541.198547,77.250610 
	C538.186401,77.039787 536.775513,78.429832 537.478455,81.389915 
	C537.953857,83.392159 539.204773,85.073669 541.473694,85.185730 
	C543.252258,85.273582 544.754761,84.205841 545.268860,82.546829 
	C546.156067,79.683594 544.136353,78.412651 541.198547,77.250610 
z"/>
<path fill="#000000" opacity="1.000000" stroke="none" 
	d="
M367.813049,237.327454 
	C335.058716,237.323242 302.784088,237.324463 270.509430,237.301804 
	C263.617767,237.296967 263.620056,237.257004 263.630157,230.370880 
	C263.634796,227.209930 263.722656,224.045334 263.599854,220.889114 
	C263.484375,217.920868 264.617371,216.807663 267.698486,216.813538 
	C270.736633,216.819321 271.452942,218.244949 271.375671,220.782257 
	C271.345245,221.779648 271.477081,222.795822 271.332428,223.773468 
	C270.729065,227.850937 272.705383,228.913147 276.471130,228.899857 
	C303.751099,228.803619 331.032227,228.752579 358.311310,228.935333 
	C363.198029,228.968079 364.308289,226.915176 363.984924,222.632599 
	C363.780090,219.919296 363.270142,216.804169 367.895386,216.804779 
	C371.096191,216.805206 372.505890,217.697128 372.370148,221.002716 
	C372.206421,224.989441 372.240631,228.987534 372.300323,232.979065 
	C372.342224,235.781647 371.374268,237.484192 367.813049,237.327454 
z"/>
<path fill="#000000" opacity="1.000000" stroke="none" 
	d="
M41.159897,222.094803 
	C40.301327,227.719681 42.743080,229.024963 47.618923,228.991211 
	C74.082436,228.808029 100.547905,228.924240 127.012627,228.885437 
	C133.586365,228.875793 133.720535,228.785751 133.643173,222.254837 
	C133.602142,218.791931 134.055054,216.526276 138.380371,216.615616 
	C141.202667,216.673935 141.816360,217.737762 141.715439,220.189194 
	C141.558243,224.007797 141.210480,227.874634 141.624619,231.646225 
	C142.122360,236.179398 140.446716,237.424713 136.097046,237.399689 
	C109.462692,237.246292 82.827103,237.310654 56.191925,237.299515 
	C49.866100,237.296860 43.539421,237.218094 37.214821,237.301620 
	C34.036076,237.343597 32.663189,235.958038 32.736397,232.807159 
	C32.829178,228.813950 32.736588,224.816711 32.793034,220.822205 
	C32.813808,219.352097 32.740616,217.735321 34.933556,217.088379 
	C37.590580,219.584229 36.189850,222.904175 36.275394,225.798508 
	C36.504814,233.560852 36.370159,233.568344 43.899197,233.588150 
	C47.390877,233.597336 50.882603,233.589737 54.383801,233.032715 
	C50.122627,233.032715 45.861305,233.010529 41.600334,233.040100 
	C38.485462,233.061722 37.035210,231.543152 37.077538,228.451553 
	C37.109432,226.121933 36.947987,223.786102 37.062469,221.462372 
	C37.147614,219.734177 36.819187,217.132385 39.302761,217.231415 
	C41.900314,217.334976 40.879684,219.992218 41.159897,222.094803 
z"/>
<path fill="#000000" opacity="1.000000" stroke="none" 
	d="
M734.672302,79.196022 
	C733.914124,73.626305 735.990112,72.024277 741.126709,72.463608 
	C747.401978,73.000328 753.757141,72.763924 760.071838,72.613228 
	C763.604553,72.528923 765.234741,73.615898 765.186890,77.433937 
	C765.084656,85.588478 765.252075,93.749542 765.473450,101.903473 
	C765.564270,105.247887 763.602295,105.980698 761.021118,105.740067 
	C753.532959,105.041977 746.037903,105.299164 738.560852,105.593994 
	C735.324646,105.721603 734.518311,104.653725 734.586914,101.648643 
	C734.754089,94.324867 734.657593,86.995064 734.672302,79.196022 
z"/>
<path fill="#000000" opacity="1.000000" stroke="none" 
	d="
M383.216461,141.391907 
	C382.262970,141.383423 381.764343,141.379318 381.265686,141.379242 
	C374.693817,141.378372 374.691376,141.378525 374.688873,134.962433 
	C374.686035,127.815056 374.792847,120.665474 374.641510,113.521301 
	C374.571747,110.229065 375.558685,108.650848 379.128113,108.654236 
	C386.266907,108.661011 393.412323,108.912811 400.549561,108.188919 
	C403.831604,107.856041 406.015411,109.096481 405.572357,113.077408 
	C404.705841,120.862808 405.167877,128.680573 405.353821,136.483688 
	C405.471985,141.442688 404.638275,142.110565 399.601654,141.784912 
	C394.305328,141.442490 388.982513,141.509872 383.216461,141.391907 
z"/>
<path fill="#000000" opacity="1.000000" stroke="none" 
	d="
M374.689514,168.938019 
	C374.691650,162.125534 374.795776,155.801071 374.656097,149.482025 
	C374.583160,146.181976 375.632294,144.641235 379.196503,144.648026 
	C386.342133,144.661652 393.502899,144.963715 400.634979,144.081207 
	C403.672729,143.705307 405.352539,145.046173 405.348969,148.307419 
	C405.339630,156.786819 405.334717,165.267654 405.490143,173.744934 
	C405.537994,176.356888 404.426575,177.470673 402.005493,177.464035 
	C394.021271,177.442139 386.022552,177.646088 378.058075,177.223129 
	C372.585632,176.932526 375.458008,172.208817 374.689514,168.938019 
z"/>
<path fill="#000000" opacity="1.000000" stroke="none" 
	d="
M765.159790,148.450989 
	C765.168762,156.721466 765.026001,164.543015 765.244507,172.354477 
	C765.352234,176.205795 764.183533,177.734970 760.118225,177.552460 
	C752.979614,177.231964 745.817383,177.313202 738.667908,177.421066 
	C735.799805,177.464325 734.412781,176.810867 734.511963,173.540329 
	C734.754089,165.563721 734.786926,157.574753 734.647156,149.595261 
	C734.583557,145.964859 735.861450,144.544708 739.556702,144.602859 
	C746.863953,144.717896 754.177124,144.523895 761.486633,144.392578 
	C764.028320,144.346939 765.147949,145.559784 765.159790,148.450989 
z"/>
<path fill="#000000" opacity="1.000000" stroke="none" 
	d="
M561.432739,108.896629 
	C563.722656,109.865746 563.872620,111.623108 563.718384,113.248543 
	C562.945862,121.392868 563.341125,129.548645 563.462341,137.693008 
	C563.516113,141.304642 561.667480,142.029846 558.805054,141.731339 
	C551.991821,141.020767 545.166260,141.327820 538.358582,141.549576 
	C534.398560,141.678574 532.551880,140.652908 532.708923,136.300766 
	C532.978760,128.821045 532.934631,121.320129 532.719727,113.836784 
	C532.605408,109.854599 534.222778,108.557251 538.029724,108.658340 
	C545.680176,108.861496 553.338318,108.777229 561.432739,108.896629 
z"/>
<path fill="#000000" opacity="1.000000" stroke="none" 
	d="
M556.860046,144.676270 
	C563.877441,144.735809 563.681335,144.729279 563.458069,151.431290 
	C563.214844,158.734467 563.228821,166.056046 563.446777,173.360168 
	C563.540527,176.501419 562.391846,177.475311 559.452209,177.432938 
	C551.975708,177.325180 544.495850,177.294510 537.019714,177.402023 
	C533.745483,177.449097 532.662109,176.021774 532.717407,172.890656 
	C532.855286,165.082489 532.903564,157.268753 532.761658,149.461365 
	C532.692444,145.657303 534.449829,144.573822 537.936096,144.658157 
	C544.080933,144.806793 550.232117,144.691772 556.860046,144.676270 
z"/>
<path fill="#000000" opacity="1.000000" stroke="none" 
	d="
M747.990295,180.702179 
	C752.647705,180.633987 756.814758,180.655960 760.972534,180.470108 
	C764.173035,180.327011 765.531067,181.623566 765.453674,184.865768 
	C765.266907,192.689453 765.103760,200.518951 765.213867,208.342117 
	C765.264832,211.959213 764.068237,213.474640 760.333130,213.380524 
	C753.340698,213.204330 746.338318,213.239349 739.344360,213.387253 
	C735.896851,213.460159 734.604065,212.098404 734.668457,208.663254 
	C734.812073,201.002625 734.828613,193.333618 734.626587,185.675156 
	C734.530518,182.032623 735.776428,180.431015 739.501831,180.688538 
	C742.154236,180.871902 744.830383,180.710434 747.990295,180.702179 
z"/>
<path fill="#000000" opacity="1.000000" stroke="none" 
	d="
M557.707825,213.360626 
	C550.430664,213.370682 543.617432,213.278900 536.810425,213.443573 
	C533.813232,213.516098 532.659180,212.493805 532.715820,209.434708 
	C532.863525,201.463608 532.857666,193.486969 532.744019,185.514954 
	C532.696960,182.213211 533.790771,180.606674 537.324036,180.673431 
	C544.630615,180.811508 551.943542,180.813049 559.250061,180.673050 
	C562.532410,180.610138 563.612000,181.958008 563.535950,185.127853 
	C563.352783,192.764755 563.159363,200.416718 563.455872,208.043732 
	C563.617798,212.209625 562.328796,213.957718 557.707825,213.360626 
z"/>
<path fill="#000000" opacity="1.000000" stroke="none" 
	d="
M836.622803,181.478607 
	C836.963318,191.352142 837.078247,200.949020 837.089294,210.546036 
	C837.091736,212.649933 835.560059,213.311600 833.676697,213.312485 
	C825.862244,213.316147 818.047729,213.304932 810.233276,213.325226 
	C808.029358,213.330963 806.762451,212.407745 806.759399,210.096054 
	C806.747986,201.450104 806.741333,192.804138 806.732910,184.158188 
	C806.731018,182.251877 807.434631,180.805511 809.546204,180.827774 
	C818.484375,180.921936 827.436890,180.070984 836.622803,181.478607 
z"/>
<path fill="#000000" opacity="1.000000" stroke="none" 
	d="
M59.214249,75.243912 
	C59.301109,84.048004 59.184982,92.380882 59.420513,100.703819 
	C59.517017,104.113884 58.553917,105.550034 54.977341,105.455391 
	C47.818703,105.265945 40.650482,105.291557 33.489277,105.411255 
	C30.146206,105.467140 28.640144,104.320625 28.720430,100.784401 
	C28.894331,93.124809 28.888676,85.457527 28.765785,77.796448 
	C28.709391,74.280899 29.857822,72.567543 33.639503,72.658432 
	C40.632343,72.826492 47.632408,72.671097 54.628628,72.737831 
	C56.360497,72.754364 58.463215,72.283699 59.214249,75.243912 
z"/>
<path fill="#000000" opacity="1.000000" stroke="none" 
	d="
M144.463837,91.514542 
	C144.563110,86.393867 144.745758,81.736000 144.625641,77.085960 
	C144.543976,73.925049 145.670547,72.554108 148.942841,72.621994 
	C156.089249,72.770248 163.241028,72.763344 170.389023,72.681297 
	C173.356537,72.647240 174.550781,73.825806 174.513794,76.819344 
	C174.411102,85.129356 174.387222,93.443336 174.540710,101.751907 
	C174.594467,104.662872 173.377213,105.655510 170.707855,105.524796 
	C163.721146,105.182655 156.749695,105.535507 149.786255,106.069771 
	C145.683350,106.384560 143.399811,105.067429 144.002869,100.438187 
	C144.366287,97.648323 144.294464,94.801758 144.463837,91.514542 
z"/>
<path fill="#000000" opacity="1.000000" stroke="none" 
	d="
M289.016479,146.295410 
	C289.175293,156.674408 289.175293,166.598785 289.175293,176.960541 
	C279.283386,176.960541 269.629974,176.960541 259.692871,176.960541 
	C259.692871,167.057907 259.682861,157.314499 259.703796,147.571152 
	C259.706909,146.123184 260.227295,144.863876 261.882751,144.737030 
	C270.914856,144.044983 279.929871,143.919952 289.016479,146.295410 
z"/>
<path fill="#000000" opacity="1.000000" stroke="none" 
	d="
M144.664810,148.379379 
	C144.522781,145.373077 145.695526,144.412689 148.266800,144.469269 
	C155.585037,144.630234 162.908157,144.695648 170.227554,144.621719 
	C173.510818,144.588562 174.578598,146.017075 174.519394,149.157501 
	C174.365784,157.307617 174.315918,165.463287 174.445358,173.613235 
	C174.490982,176.484741 173.430817,177.431458 170.676300,177.393265 
	C163.189713,177.289368 155.700775,177.335907 148.212860,177.359222 
	C145.753815,177.366882 144.124786,176.942123 144.241333,173.766632 
	C144.546143,165.461014 144.543503,157.144089 144.664810,148.379379 
z"/>
<path fill="#000000" opacity="1.000000" stroke="none" 
	d="
M619.595459,192.279297 
	C619.196472,180.507523 616.579041,180.515976 630.361572,180.693008 
	C635.181091,180.754913 640.004211,180.801895 644.821472,180.684738 
	C647.883240,180.610275 649.427734,181.605148 649.375793,184.946518 
	C649.249207,193.089111 649.323608,201.235046 649.344788,209.379578 
	C649.350647,211.617996 648.881531,213.324173 646.114014,213.314133 
	C637.499756,213.282913 628.885315,213.302704 619.597839,213.302704 
	C619.597839,206.254684 619.597839,199.501236 619.595459,192.279297 
z"/>
<path fill="#000000" opacity="1.000000" stroke="none" 
	d="
M149.277374,213.338409 
	C145.341446,213.688751 144.284760,212.351654 144.472839,208.717758 
	C144.868607,201.071808 144.785812,193.389999 144.602173,185.730026 
	C144.515854,182.130188 145.604080,180.561493 149.391922,180.667572 
	C156.385483,180.863449 163.390060,180.831177 170.386230,180.696350 
	C173.748718,180.631546 174.710556,182.191193 174.637741,185.264526 
	C174.452347,193.089951 174.287872,200.921127 174.400101,208.745941 
	C174.450272,212.243515 173.181900,213.463486 169.736343,213.373749 
	C163.075531,213.200302 156.406677,213.336212 149.277374,213.338409 
z"/>
<path fill="#000000" opacity="1.000000" stroke="none" 
	d="
M619.476440,173.850677 
	C619.553955,165.630478 619.788025,157.804916 619.550964,149.993622 
	C619.422607,145.762604 621.075134,144.478851 625.082825,144.601730 
	C631.731323,144.805557 638.393494,144.705002 645.046265,144.563019 
	C647.889465,144.502319 649.425415,145.287598 649.386841,148.441864 
	C649.285156,156.760178 649.272400,165.081070 649.363403,173.399429 
	C649.397217,176.489624 647.976929,177.420349 645.099976,177.383408 
	C637.780151,177.289398 630.457642,177.332077 623.137146,177.408539 
	C620.867188,177.432251 619.055969,177.201813 619.476440,173.850677 
z"/>
<path fill="#000000" opacity="1.000000" stroke="none" 
	d="
M702.048828,180.731369 
	C707.355347,180.729980 712.171692,180.788315 716.985535,180.704041 
	C719.755066,180.655548 721.379883,181.466492 721.347168,184.619522 
	C721.261047,192.920715 721.285034,201.223831 721.355408,209.525421 
	C721.378723,212.277527 720.198486,213.375931 717.469299,213.346634 
	C710.164612,213.268234 702.858032,213.279816 695.553223,213.353424 
	C692.855530,213.380600 691.663269,212.315353 691.642822,209.543961 
	C691.581543,201.246185 691.382629,192.949341 691.218994,184.652496 
	C691.166626,181.996887 692.313660,180.625870 695.083008,180.717926 
	C697.239014,180.789566 699.399292,180.731628 702.048828,180.731369 
z"/>
<path fill="#000000" opacity="1.000000" stroke="none" 
	d="
M474.623016,228.780319 
	C480.540100,229.138443 479.675110,225.174225 479.586395,221.967529 
	C479.496307,218.709564 479.907837,216.391907 484.107910,216.767960 
	C486.488342,216.981094 487.333191,217.960602 487.321381,220.169418 
	C487.298248,224.498352 487.226105,228.831436 487.379608,233.155518 
	C487.500671,236.567444 485.747314,237.384460 482.743103,237.354889 
	C474.751495,237.276184 466.758240,237.374329 458.765656,237.375122 
	C438.783905,237.377106 418.801361,237.270401 398.820953,237.430206 
	C394.425385,237.465363 392.215637,236.316223 392.661743,231.535034 
	C392.954376,228.398346 392.691803,225.212219 392.730438,222.048904 
	C392.788910,217.265106 394.789825,215.742508 399.415985,216.992462 
	C401.664246,217.599930 401.208008,219.560547 401.184296,221.129761 
	C401.069824,228.697678 400.156647,228.868454 409.236786,228.867416 
	C430.881226,228.864975 452.525696,228.828934 474.623016,228.780319 
z"/>
<path fill="#000000" opacity="1.000000" stroke="none" 
	d="
M260.002747,107.999321 
	C258.871460,106.570068 258.862274,104.867935 259.048004,103.220688 
	C260.021515,94.587845 259.538055,85.925812 259.487488,77.283150 
	C259.466736,73.742928 260.586456,72.585838 264.051208,72.680946 
	C270.874420,72.868225 277.711731,72.884460 284.533051,72.660995 
	C288.288757,72.537964 289.443451,74.003586 289.404175,77.621536 
	C289.315613,85.775940 289.513885,93.935455 289.714569,102.089958 
	C289.787201,105.042114 288.479553,105.779015 285.733459,105.604279 
	C278.751495,105.159988 271.762299,105.336052 264.774261,105.741676 
	C263.026947,105.843102 261.458557,105.939484 260.168610,107.751068 
	C259.971893,108.016739 259.993164,108.004311 260.002747,107.999321 
M264.704895,81.570541 
	C266.634521,83.443665 267.951447,82.600227 268.638794,80.480209 
	C269.098572,79.062172 268.325256,77.749817 266.870056,77.516373 
	C264.084076,77.069466 264.118164,78.979546 264.704895,81.570541 
z"/>
<path fill="#000000" opacity="1.000000" stroke="none" 
	d="
M441.000061,93.319901 
	C434.341980,93.319061 428.183899,93.310425 422.025818,93.317276 
	C415.439331,93.324600 415.500488,93.333160 415.265350,99.890663 
	C415.199799,101.720222 416.123352,104.043716 413.537689,105.079659 
	C409.637421,106.642288 407.178131,104.793282 407.340820,100.510124 
	C407.473389,97.020294 407.803650,93.501442 407.508026,90.041443 
	C407.163300,86.006714 408.739136,84.815254 412.603333,84.841286 
	C430.907623,84.964592 449.213318,84.884506 467.518494,84.877953 
	C469.182831,84.877357 470.847473,84.906631 472.511444,84.884064 
	C479.599091,84.787949 479.880737,84.768959 479.531586,77.627457 
	C479.320557,73.311729 481.098114,72.385399 484.786133,72.839592 
	C486.413696,73.040039 487.142426,73.858154 487.233368,75.403786 
	C487.262695,75.901947 487.281464,76.400734 487.310150,76.898941 
	C488.251312,93.239487 488.251495,93.257240 471.957458,93.313087 
	C461.805115,93.347878 451.652527,93.319145 441.000061,93.319901 
z"/>
<path fill="#000000" opacity="1.000000" stroke="none" 
	d="
M240.679047,164.949295 
	C224.075958,165.184753 207.925079,165.426407 191.778656,165.252472 
	C186.931580,165.200272 184.499619,166.390823 185.106384,171.639587 
	C185.320969,173.495850 185.568069,175.658142 183.415131,177.185562 
	C179.528351,175.049271 181.879181,171.096542 180.303986,167.766891 
	C180.303986,170.444519 180.359940,172.562668 180.282394,174.675903 
	C180.237961,175.887100 179.911041,177.094055 178.292236,176.927048 
	C177.084305,176.802429 176.626205,175.843613 176.631973,174.793411 
	C176.658478,169.967972 176.613556,165.135117 176.876221,160.320312 
	C177.066711,156.828232 179.866745,156.859650 182.436874,156.861099 
	C195.922455,156.868729 209.408035,156.886887 222.893616,156.896469 
	C224.891708,156.897903 226.907990,156.695038 228.884293,156.896423 
	C233.479950,157.364685 234.995453,155.455109 234.796494,150.878418 
	C234.514236,144.385681 234.815460,144.359634 242.223999,145.455017 
	C242.039932,151.865311 243.633881,158.389984 240.679047,164.949295 
z"/>
<path fill="#000000" opacity="1.000000" stroke="none" 
	d="
M576.059082,84.809921 
	C584.867371,84.825500 593.186340,84.894432 601.504944,84.861839 
	C608.650452,84.833839 608.906555,84.773163 608.650757,77.795578 
	C608.495361,73.555771 610.127808,72.318069 614.084900,72.248375 
	C616.901733,72.198776 617.614868,73.268036 617.530579,75.722374 
	C617.387939,79.873940 617.158875,84.034340 617.294861,88.180244 
	C617.422974,92.084709 615.811157,93.472397 611.960022,93.405457 
	C601.813049,93.229088 591.661377,93.334290 581.511536,93.309135 
	C573.422180,93.289078 573.432434,93.277100 573.470886,101.120453 
	C573.476440,102.254845 573.328735,103.389992 573.256653,104.454903 
	C566.113281,106.094452 565.670349,105.777695 565.379211,99.076653 
	C565.270874,96.584686 565.025208,94.091927 565.054993,91.602066 
	C565.128052,85.491798 565.807068,84.887520 572.075500,84.837242 
	C573.240234,84.827904 574.404907,84.825058 576.059082,84.809921 
z"/>
<path fill="#000000" opacity="1.000000" stroke="none" 
	d="
M326.878662,156.880463 
	C335.118011,156.699112 335.199463,156.703201 335.600250,148.727844 
	C335.731567,146.114960 336.427490,144.841232 339.347412,144.760040 
	C342.563782,144.670624 343.229370,146.122955 343.372955,148.934692 
	C344.207642,165.278885 344.255646,165.293976 327.995117,165.377502 
	C320.839386,165.414261 313.673553,165.585480 306.530640,165.274231 
	C301.731140,165.065079 299.873016,166.792816 300.237579,171.599075 
	C300.428589,174.117294 301.389374,177.273178 296.357208,177.145630 
	C292.457550,177.046768 291.807098,175.648254 292.019135,172.459351 
	C292.239532,169.144577 292.751495,165.755173 292.306488,162.512238 
	C291.646210,157.700668 293.855469,156.783051 297.947540,156.845764 
	C307.429138,156.991074 316.914581,156.884567 326.878662,156.880463 
z"/>
<path fill="#000000" opacity="1.000000" stroke="none" 
	d="
M183.527374,236.875366 
	C172.960983,237.141479 162.816452,237.160736 152.673645,237.302307 
	C149.544861,237.345978 148.027130,236.047989 148.028900,232.909760 
	C148.031250,228.750412 148.054962,224.588898 147.934296,220.432251 
	C147.803329,215.920822 151.205338,217.290436 153.544724,216.983566 
	C156.590439,216.584076 156.656433,218.698364 156.572968,220.831070 
	C156.527466,221.993912 156.472977,223.160507 156.334396,224.314819 
	C155.959229,227.439545 157.098007,229.080780 160.457809,228.838882 
	C161.945526,228.731781 163.451828,228.916061 164.947540,228.879578 
	C168.269348,228.798584 171.938904,229.516846 174.825424,228.338440 
	C178.728119,226.745163 175.962189,222.381683 176.850510,219.368973 
	C177.149445,218.355087 177.444778,217.475754 178.837585,217.097244 
	C181.824890,218.970306 179.508987,222.246094 180.802490,225.137070 
	C180.979080,222.812897 181.035660,220.946716 181.294922,219.109146 
	C181.433426,218.127380 181.930237,217.165115 183.170425,217.137817 
	C184.420197,217.110291 185.074829,218.021866 185.030060,219.034729 
	C184.769928,224.920029 186.526443,230.935913 183.527374,236.875366 
z"/>
<path fill="#000000" opacity="1.000000" stroke="none" 
	d="
M653.881470,237.305344 
	C645.088867,237.307022 636.777527,237.174286 628.473999,237.371155 
	C624.522583,237.464828 623.088867,235.878326 623.310486,232.067047 
	C623.522278,228.426941 623.545959,224.763412 623.407532,221.119476 
	C623.302002,218.343948 623.813904,216.735382 627.150146,216.765015 
	C630.015137,216.790466 631.376038,217.517288 631.543457,220.606018 
	C631.991150,228.867188 632.092957,228.861954 640.283630,228.874817 
	C641.446777,228.876648 642.610046,228.880615 643.773132,228.871948 
	C652.066101,228.810181 652.451111,228.959854 651.934570,221.215134 
	C651.731262,218.167511 652.955322,216.839874 656.322083,216.803024 
	C660.001282,216.762741 660.428528,218.607285 660.353027,221.448700 
	C660.264709,224.769806 660.088196,228.113190 660.359314,231.413284 
	C660.735168,235.989456 658.949707,237.969879 653.881470,237.305344 
z"/>
<path fill="#000000" opacity="1.000000" stroke="none" 
	d="
M556.998535,237.339600 
	C551.846497,237.344406 547.175964,237.092697 542.546387,237.419479 
	C537.810303,237.753769 536.337769,235.723389 536.661316,231.295776 
	C536.927002,227.659012 536.680176,223.987396 536.762573,220.333542 
	C536.805908,218.412735 537.105164,217.356918 539.846558,217.066071 
	C544.921265,216.527725 545.840027,218.675522 545.215820,222.832718 
	C544.542908,227.314590 546.304749,229.389923 550.956787,228.867828 
	C552.597717,228.683670 554.276672,228.839813 555.938293,228.839523 
	C564.728394,228.838013 564.880981,228.850922 565.621704,220.191940 
	C565.924194,216.655685 568.064941,216.960388 570.445312,216.827515 
	C573.305359,216.667862 573.834961,218.207397 573.623535,220.561066 
	C573.280518,224.378647 573.318970,228.191666 573.828064,231.998459 
	C574.320923,235.683777 573.117554,237.674286 568.959412,237.396240 
	C565.154663,237.141815 561.319763,237.338882 556.998535,237.339600 
z"/>
<path fill="#000000" opacity="1.000000" stroke="none" 
	d="
M730.661377,216.793671 
	C733.521240,223.023987 732.210083,229.401154 731.710510,235.691788 
	C731.574402,237.405319 729.402649,237.273682 727.924011,237.277328 
	C718.605591,237.300278 709.286499,237.227066 699.969055,237.322845 
	C696.742737,237.356018 695.508240,235.980820 695.572632,232.830139 
	C695.657471,228.675156 695.515808,224.514267 695.416260,220.357254 
	C695.356689,217.865677 696.340210,216.742416 698.982178,216.838089 
	C701.355164,216.924026 703.197266,217.034760 703.413025,220.125168 
	C703.603210,222.849838 701.949890,226.341766 704.520508,228.132599 
	C706.921814,229.805450 710.344421,228.765228 713.318909,228.891571 
	C714.149414,228.926865 714.982727,228.900223 715.814758,228.896393 
	C724.340393,228.857285 724.510437,228.754303 723.901428,221.177856 
	C723.470032,215.811127 727.578979,217.369461 730.661377,216.793671 
z"/>
<path fill="#000000" opacity="1.000000" stroke="none" 
	d="
M775.227783,234.754700 
	C774.577148,237.395065 772.775757,237.278046 771.130981,237.282654 
	C761.806152,237.308777 752.480835,237.240906 743.156494,237.315048 
	C739.993042,237.340195 738.602295,236.030228 738.687866,232.842636 
	C738.799561,228.682709 738.807312,224.514801 738.686401,220.355362 
	C738.581848,216.758057 740.856506,217.232330 743.300903,217.017151 
	C746.324524,216.750961 746.683228,218.348648 746.702942,220.560608 
	C746.710327,221.388626 746.615601,222.227829 746.472168,223.045212 
	C745.699951,227.444672 747.608154,229.169952 751.948669,228.879730 
	C754.765747,228.691391 757.607910,228.911469 760.437866,228.874161 
	C767.612000,228.779587 767.652405,228.762375 767.579651,221.657974 
	C767.552795,219.030548 767.239075,216.647293 771.214478,216.755692 
	C774.191223,216.836853 775.459900,217.747177 775.359314,220.794586 
	C775.211182,225.285721 775.302002,229.784744 775.227783,234.754700 
z"/>
<path fill="#000000" opacity="1.000000" stroke="none" 
	d="
M830.896729,228.885651 
	C840.401672,228.767532 839.908264,228.704224 839.556152,220.771088 
	C839.441406,218.186218 839.990540,216.727127 843.074951,216.796951 
	C845.884949,216.860565 847.468384,217.472076 847.356201,220.665085 
	C847.204712,224.977158 847.284546,229.298706 847.324341,233.615646 
	C847.347107,236.080719 846.266418,237.280899 843.744995,237.272644 
	C833.948120,237.240601 824.151062,237.247345 814.354065,237.259537 
	C811.869324,237.262634 810.714050,236.049255 810.723999,233.591614 
	C810.742126,229.108383 810.651794,224.623474 810.743835,220.142090 
	C810.857971,214.582901 815.252808,218.238770 817.201904,216.876633 
	C819.147034,218.550125 818.493713,220.453705 818.442688,222.218719 
	C818.253967,228.747650 818.243103,228.754578 824.940186,228.876038 
	C826.766296,228.909164 828.593445,228.884338 830.896729,228.885651 
z"/>
<path fill="#000000" opacity="1.000000" stroke="none" 
	d="
M569.011719,213.249054 
	C565.894836,213.475494 565.224915,211.962357 565.226074,209.561279 
	C565.230042,201.419464 565.179382,193.276611 565.035583,185.136185 
	C564.972229,181.548874 566.738220,180.761703 570.017822,180.733322 
	C573.471924,180.703430 573.759888,182.430389 573.717041,185.110413 
	C573.589417,193.091476 573.522644,201.075546 573.600464,209.056793 
	C573.630127,212.098679 572.930786,213.957748 569.011719,213.249054 
z"/>
<path fill="#000000" opacity="1.000000" stroke="none" 
	d="
M573.633667,113.550423 
	C573.587158,122.856064 573.587158,131.775681 573.587158,140.578598 
	C565.781250,141.999893 565.588013,141.807785 565.550903,134.531372 
	C565.515442,127.570938 565.552063,120.603371 565.229675,113.654129 
	C565.077271,110.369400 565.720337,108.881363 569.408569,108.625816 
	C573.272034,108.358139 574.168762,109.848656 573.633667,113.550423 
z"/>
<path fill="#000000" opacity="1.000000" stroke="none" 
	d="
M565.272583,149.419586 
	C564.520813,144.090149 568.106018,144.801392 570.996765,144.696426 
	C574.563965,144.566925 573.873840,147.229446 573.732056,149.256729 
	C573.198669,156.883133 573.276428,164.500916 573.732483,172.123962 
	C573.898071,174.891464 574.131165,177.339676 569.882385,177.328842 
	C565.873474,177.318619 565.310913,175.727692 565.427734,172.194839 
	C565.674011,164.743225 565.394958,157.274261 565.272583,149.419586 
z"/>
<path fill="#000000" opacity="1.000000" stroke="none" 
	d="
M141.235779,212.346283 
	C134.602921,214.431763 133.552155,213.707504 133.514084,207.463135 
	C133.467682,199.850922 133.513168,192.236496 133.337250,184.627213 
	C133.182144,177.918488 138.527359,182.509125 141.334000,179.640244 
	C141.334000,191.218246 141.334000,201.603912 141.235779,212.346283 
z"/>
<path fill="#000000" opacity="1.000000" stroke="none" 
	d="
M652.609375,197.912735 
	C652.572449,194.281815 652.703674,191.116867 652.474976,187.978119 
	C651.930603,180.507614 651.896179,180.478867 659.908203,181.173157 
	C659.908203,191.612183 659.908203,202.092514 659.908203,212.526505 
	C651.974365,213.713852 651.668762,213.409546 652.282166,205.845215 
	C652.483093,203.367676 652.508301,200.875885 652.609375,197.912735 
z"/>
<path fill="#000000" opacity="1.000000" stroke="none" 
	d="
M415.321167,130.963608 
	C415.321045,134.421570 415.321045,137.386795 415.321045,140.170166 
	C407.984253,142.614624 407.332855,142.074554 407.509644,135.375427 
	C407.685059,128.728745 407.729919,122.066139 407.476929,115.424042 
	C407.213745,108.515640 407.263245,108.316833 415.321320,109.285751 
	C415.321320,116.279411 415.321320,123.375145 415.321167,130.963608 
z"/>
<path fill="#000000" opacity="1.000000" stroke="none" 
	d="
M415.317322,164.985535 
	C415.317047,167.967545 415.154327,170.465988 415.353058,172.935349 
	C415.647552,176.594818 413.819275,177.421295 410.581390,177.338120 
	C406.927277,177.244247 407.396057,174.969269 407.421356,172.547546 
	C407.502655,164.764359 407.509277,156.978836 407.404633,149.196091 
	C407.368927,146.538666 407.619843,144.763077 411.029877,144.734421 
	C414.299072,144.706955 415.454224,145.898132 415.359619,149.080231 
	C415.207062,154.212372 415.317322,159.352310 415.317322,164.985535 
z"/>
<path fill="#000000" opacity="1.000000" stroke="none" 
	d="
M775.225098,183.308533 
	C775.288696,191.607452 775.324768,199.438919 775.315674,207.270355 
	C775.308411,213.564453 775.067078,213.735764 767.665161,212.763245 
	C767.665161,207.757889 767.686890,202.653946 767.658081,197.550278 
	C767.635559,193.552521 767.569885,189.554718 767.484131,185.557755 
	C767.445496,183.757751 766.824402,181.414246 769.252808,181.036102 
	C771.262512,180.723175 774.031189,179.622498 775.225098,183.308533 
z"/>
<path fill="#000000" opacity="1.000000" stroke="none" 
	d="
M732.262329,188.119202 
	C732.257690,195.744019 732.194458,202.885330 732.273743,210.025070 
	C732.307556,213.068451 730.850281,213.446060 728.181091,213.291489 
	C725.545654,213.138870 724.124023,212.611755 724.317932,209.620026 
	C724.854980,201.331192 724.889954,193.035065 724.335510,184.738708 
	C724.238770,183.291565 724.161560,181.670471 726.814514,180.953705 
	C729.754517,186.945450 727.181885,193.474930 728.425354,199.367996 
	C729.570557,193.485382 727.321045,187.046097 729.880127,180.702133 
	C733.422913,182.657867 731.885254,185.421188 732.262329,188.119202 
z"/>
<path fill="#000000" opacity="1.000000" stroke="none" 
	d="
M847.313843,204.940506 
	C846.748169,208.646118 849.457520,213.725662 842.585510,213.308960 
	C840.214111,213.165146 839.265442,212.279739 839.370728,210.018845 
	C839.771606,201.413742 839.879456,192.812729 839.275940,184.207443 
	C839.101379,181.717850 840.464722,180.699280 842.998901,180.822708 
	C845.293274,180.934494 847.346069,180.877960 847.315125,184.078995 
	C847.249451,190.868835 847.306519,197.659851 847.313843,204.940506 
M843.745728,189.844147 
	C843.706543,189.352448 843.667358,188.860733 843.628174,188.369034 
	C843.554688,188.370224 843.481201,188.371399 843.407715,188.372589 
	C843.407715,193.416901 843.407715,198.461197 843.407715,203.505508 
	C843.521057,203.505692 843.634338,203.505875 843.747681,203.506058 
	C843.747681,199.185669 843.747681,194.865295 843.745728,189.844147 
z"/>
<path fill="#000000" opacity="1.000000" stroke="none" 
	d="
M839.655884,162.955933 
	C839.567871,157.651611 839.472107,152.835449 839.394775,148.019012 
	C839.358459,145.757217 840.393677,144.589279 842.752075,144.846680 
	C844.601562,145.048523 847.172974,144.244766 847.197754,147.367981 
	C847.274841,157.122910 847.226074,166.878830 847.226074,176.495255 
	C839.317871,178.081772 839.303345,178.051025 839.589844,170.921097 
	C839.689880,168.431885 839.638123,165.936539 839.655884,162.955933 
M843.729370,170.031250 
	C843.729370,164.108490 843.729370,158.185745 843.729370,152.262985 
	C843.327271,158.532089 843.312195,164.800003 843.354126,171.067505 
	C843.357727,171.603043 843.655762,171.613251 843.689880,171.101639 
	C843.700928,170.936737 843.707397,170.771545 843.729370,170.031250 
z"/>
<path fill="#000000" opacity="1.000000" stroke="none" 
	d="
M847.310730,125.997589 
	C847.312439,131.124771 847.312439,135.753159 847.312439,140.398560 
	C844.627563,141.537445 842.394104,141.410034 839.655518,141.068802 
	C839.655518,135.888107 839.660095,130.799210 839.653809,125.710304 
	C839.649658,122.382454 839.695312,119.052803 839.603149,115.727150 
	C839.408203,108.693672 839.377136,108.694534 847.309021,109.384674 
	C847.309021,114.683334 847.309021,120.091072 847.310730,125.997589 
M843.226868,118.297585 
	C843.226868,124.107033 843.226868,129.916473 843.226868,135.725922 
	C843.333496,135.724670 843.440125,135.723419 843.546753,135.722168 
	C843.546753,129.005295 843.546753,122.288422 843.546753,115.571548 
	C843.440247,115.572823 843.333740,115.574089 843.227234,115.575363 
	C843.227234,116.236809 843.227234,116.898254 843.226868,118.297585 
z"/>
<path fill="#000000" opacity="1.000000" stroke="none" 
	d="
M185.173157,184.411285 
	C185.181503,192.973114 185.211472,201.079605 185.133224,209.185059 
	C185.118317,210.728287 185.394897,212.964035 182.982712,212.883896 
	C181.031357,212.819077 181.103699,210.824768 181.091431,209.401520 
	C181.020203,201.140839 180.993576,192.879120 181.057785,184.618576 
	C181.068771,183.204193 181.168915,181.364487 183.122833,181.182480 
	C184.978439,181.009628 184.970428,182.657623 185.173157,184.411285 
z"/>
<path fill="#000000" opacity="1.000000" stroke="none" 
	d="
M180.368225,186.343445 
	C180.021301,195.510086 181.054626,204.316177 179.540390,214.017899 
	C175.602554,209.244812 176.046341,183.030396 179.223969,180.900162 
	C181.106064,182.213150 180.126053,184.203934 180.368225,186.343445 
z"/>
</svg>